<svg width="144" height="84" viewBox="0 0 144 84" fill="none" xmlns="http://www.w3.org/2000/svg">
<path d="M67.6758 12.5244C70.8008 16.2842 73.1201 20.7031 74.6338 25.7812C76.1963 30.8105 76.9775 36.084 76.9775 41.6016C76.9775 48.2422 76.0254 54.1992 74.1211 59.4727C72.2168 64.6973 69.6045 69.043 66.2842 72.5098C62.8662 76.0742 58.8135 78.7598 54.126 80.5664C49.4385 82.373 44.2139 83.2764 38.4521 83.2764C32.1533 83.2764 26.5381 82.2266 21.6064 80.127C16.6748 78.0273 12.6709 75.1465 9.59473 71.4844C6.37207 67.6758 3.95508 63.2324 2.34375 58.1543C0.78125 53.0273 0 47.5098 0 41.6016C0 35.791 0.756836 30.4443 2.27051 25.5615C3.83301 20.6787 6.25 16.2598 9.52148 12.3047C12.6465 8.49609 16.6748 5.49316 21.6064 3.2959C26.5381 1.09863 32.1777 0 38.5254 0C45.2148 0 50.9521 1.12305 55.7373 3.36914C60.5225 5.61523 64.502 8.66699 67.6758 12.5244ZM60.791 41.6016C60.791 29.9805 58.7891 20.9717 54.7852 14.5752C50.8301 8.17871 45.4346 4.98047 38.5986 4.98047C31.665 4.98047 26.1963 8.17871 22.1924 14.5752C18.1885 20.9717 16.1865 29.9805 16.1865 41.6016C16.1865 52.6367 18.0908 61.5234 21.8994 68.2617C25.7568 74.9512 31.2744 78.2959 38.4521 78.2959C45.6299 78.2959 51.1475 74.9512 55.0049 68.2617C58.8623 61.5234 60.791 52.6367 60.791 41.6016ZM143.848 80.9326H94.4824V75.7324C95.9473 75.6348 98.2178 75.4395 101.294 75.1465C104.419 74.8047 106.567 74.4629 107.739 74.1211C109.253 73.6328 110.4 72.8516 111.182 71.7773C112.012 70.6543 112.427 68.9941 112.427 66.7969V15.3809H94.1895V9.22852H98.2178C103.491 9.22852 108.203 8.25195 112.354 6.29883C116.553 4.3457 119.556 2.24609 121.362 0H127.441C127.295 3.17383 127.148 6.88477 127.002 11.1328C126.855 15.3809 126.782 19.1895 126.782 22.5586V65.9912C126.782 67.7002 127.148 69.2383 127.881 70.6055C128.662 71.9238 129.761 72.9004 131.177 73.5352C132.446 74.0723 134.521 74.5605 137.402 75C140.283 75.4395 142.432 75.6836 143.848 75.7324V80.9326Z" fill="#01996D" fill-opacity="0.2"/>
</svg>
