<svg width="162" height="84" viewBox="0 0 162 84" fill="none" xmlns="http://www.w3.org/2000/svg">
<path d="M67.6758 12.5244C70.8008 16.2842 73.1201 20.7031 74.6338 25.7812C76.1963 30.8105 76.9775 36.084 76.9775 41.6016C76.9775 48.2422 76.0254 54.1992 74.1211 59.4727C72.2168 64.6973 69.6045 69.043 66.2842 72.5098C62.8662 76.0742 58.8135 78.7598 54.126 80.5664C49.4385 82.373 44.2139 83.2764 38.4521 83.2764C32.1533 83.2764 26.5381 82.2266 21.6064 80.127C16.6748 78.0273 12.6709 75.1465 9.59473 71.4844C6.37207 67.6758 3.95508 63.2324 2.34375 58.1543C0.78125 53.0273 0 47.5098 0 41.6016C0 35.791 0.756836 30.4443 2.27051 25.5615C3.83301 20.6787 6.25 16.2598 9.52148 12.3047C12.6465 8.49609 16.6748 5.49316 21.6064 3.2959C26.5381 1.09863 32.1777 0 38.5254 0C45.2148 0 50.9521 1.12305 55.7373 3.36914C60.5225 5.61523 64.502 8.66699 67.6758 12.5244ZM60.791 41.6016C60.791 29.9805 58.7891 20.9717 54.7852 14.5752C50.8301 8.17871 45.4346 4.98047 38.5986 4.98047C31.665 4.98047 26.1963 8.17871 22.1924 14.5752C18.1885 20.9717 16.1865 29.9805 16.1865 41.6016C16.1865 52.6367 18.0908 61.5234 21.8994 68.2617C25.7568 74.9512 31.2744 78.2959 38.4521 78.2959C45.6299 78.2959 51.1475 74.9512 55.0049 68.2617C58.8623 61.5234 60.791 52.6367 60.791 41.6016ZM161.279 80.9326H92.6514V70.9717C93.9697 69.458 95.8008 67.7734 98.1445 65.918C100.488 64.0137 103.271 61.9629 106.494 59.7656C108.447 58.4473 110.791 57.0068 113.525 55.4443C116.26 53.8818 119.36 52.1729 122.827 50.3174C126.685 48.2666 129.639 46.46 131.689 44.8975C133.789 43.335 135.693 41.4062 137.402 39.1113C138.525 37.5977 139.429 35.7178 140.112 33.4717C140.796 31.1768 141.138 27.9297 141.138 23.7305C141.138 17.627 139.502 13.1592 136.23 10.3271C132.959 7.44629 128.76 6.00586 123.633 6.00586C120.459 6.00586 117.456 6.64062 114.624 7.91016C111.792 9.13086 109.668 10.8398 108.252 13.0371C108.594 14.5996 109.009 16.4551 109.497 18.6035C110.034 20.752 110.303 22.8516 110.303 24.9023C110.303 26.7578 109.521 28.418 107.959 29.8828C106.445 31.2988 104.175 32.0068 101.147 32.0068C98.7061 32.0068 96.8262 31.1768 95.5078 29.5166C94.1895 27.8076 93.5303 25.5371 93.5303 22.7051C93.5303 20.0684 94.2627 17.4316 95.7275 14.7949C97.1924 12.1094 99.292 9.64355 102.026 7.39746C104.712 5.2002 108.032 3.41797 111.987 2.05078C115.942 0.683594 120.215 0 124.805 0C134.814 0 142.749 2.24609 148.608 6.73828C154.517 11.1816 157.471 17.1387 157.471 24.6094C157.471 28.1738 156.934 31.4209 155.859 34.3506C154.834 37.2803 153.149 39.8682 150.806 42.1143C148.218 44.6045 145.19 46.7529 141.724 48.5596C138.257 50.3174 132.959 52.7832 125.83 55.957C121.582 57.8613 117.627 59.8633 113.965 61.9629C110.303 64.0137 107.3 66.0156 104.956 67.9688H161.279V80.9326Z" fill="#01996D" fill-opacity="0.2"/>
</svg>
